<?xml version="1.0" encoding="UTF-8" standalone="no"?>
<!-- Created with Inkscape (http://www.inkscape.org/) -->

<svg
   xmlns:dc="http://purl.org/dc/elements/1.1/"
   xmlns:cc="http://creativecommons.org/ns#"
   xmlns:rdf="http://www.w3.org/1999/02/22-rdf-syntax-ns#"
   xmlns:svg="http://www.w3.org/2000/svg"
   xmlns="http://www.w3.org/2000/svg"
   xmlns:sodipodi="http://sodipodi.sourceforge.net/DTD/sodipodi-0.dtd"
   xmlns:inkscape="http://www.inkscape.org/namespaces/inkscape"
   width="203.63567mm"
   height="101.51562mm"
   viewBox="0 0 203.63567 101.51562"
   version="1.1"
   id="svg4735"
   inkscape:version="0.92.3 (2405546, 2018-03-11)"
   sodipodi:docname="Vector Chok-Auto.svg">
  <defs
     id="defs4729" />
  <sodipodi:namedview
     id="base"
     pagecolor="#ffffff"
     bordercolor="#666666"
     borderopacity="1.0"
     inkscape:pageopacity="0.0"
     inkscape:pageshadow="2"
     inkscape:zoom="0.49497475"
     inkscape:cx="430.39407"
     inkscape:cy="220.20191"
     inkscape:document-units="mm"
     inkscape:current-layer="layer1"
     showgrid="false"
     inkscape:snap-page="false"
     inkscape:window-width="1280"
     inkscape:window-height="962"
     inkscape:window-x="-8"
     inkscape:window-y="-8"
     inkscape:window-maximized="1" />
  <metadata
     id="metadata4732">
    <rdf:RDF>
      <cc:Work
         rdf:about="">
        <dc:format>image/svg+xml</dc:format>
        <dc:type
           rdf:resource="http://purl.org/dc/dcmitype/StillImage" />
        <dc:title></dc:title>
      </cc:Work>
    </rdf:RDF>
  </metadata>
  <g
     inkscape:label="Capa 1"
     inkscape:groupmode="layer"
     id="layer1"
     transform="translate(-3.3291843,-78.015927)">
    <path
       id="path32"
       style="fill:#1a171b;fill-opacity:1;fill-rule:nonzero;stroke:none;stroke-width:0.25657138"
       d="m 193.72576,139.77779 c -1.49325,3.02216 -1.54482,6.8402 -0.12315,9.72919 0.57729,1.1751 1.37009,2.55802 2.77097,2.70914 2.29375,0.24913 2.85281,-2.68604 3.14043,-4.67961 0.33098,-2.304 0.5542,-4.35401 0.5542,-6.58875 0,-2.1552 0.0872,-5.48806 -2.09363,-5.17274 -0.52597,0.0773 -0.90056,0.23118 -1.23154,0.4313 -1.10325,0.67222 -2.26809,2.05514 -3.01728,3.57147 m -8.55922,5.97273 c -0.52598,-4.77993 1.90376,-8.84888 4.31014,-11.26862 1.34469,-1.35187 2.86873,-2.36789 4.55696,-3.26333 1.69338,-0.898 4.01535,-1.68054 6.21904,-1.66257 7.27662,0.0642 6.36835,8.94151 6.71217,16.01005 v 0.67734 c -0.13856,5.67024 -0.83642,10.3501 -4.37198,12.13044 -4.11284,2.07567 -9.37768,-0.86951 -11.63809,-2.70913 -2.5734,-2.09105 -5.3418,-5.84239 -5.78824,-9.91418"
       inkscape:connector-curvature="0" />
    <path
       id="path56"
       style="fill:#1a171b;fill-opacity:1;fill-rule:nonzero;stroke:none;stroke-width:0.25657138"
       d="m 193.41783,119.39565 c -3.27642,3.20715 -6.61698,6.79915 -9.175,10.776 1.48555,0.11033 3.11991,0.059 4.61828,0 -0.85181,1.96277 -2.05,4.10772 -2.89412,6.28088 -1.55739,-0.0179 -2.9711,0.11033 -4.55671,0.0615 -1.10582,3.82547 -1.87297,8.48225 -1.23154,13.0546 0.59268,4.23061 2.17316,7.89984 3.5099,11.20679 -2.45539,0.25657 -4.82868,0.59012 -7.32742,0.8005 -1.36009,-3.43548 -3.00728,-7.23018 -3.63332,-11.5765 -0.67991,-4.71578 0.12316,-9.49315 1.1084,-13.54697 -1.15714,-0.0257 -2.5375,-0.0434 -3.44833,-0.12316 0.76459,-2.37585 1.76034,-4.52078 2.77098,-6.65033 1.09812,0.0924 2.24499,0.13598 3.38674,0.18474 2.99675,-4.28988 6.22699,-8.34627 9.9755,-11.88439 2.3684,0.32071 4.83123,0.54649 7.32768,0.73893 0.0821,0.28992 -0.27198,0.52083 -0.43104,0.67734"
       inkscape:connector-curvature="0" />
    <path
       id="path64"
       style="fill:#1a171b;fill-opacity:1;fill-rule:nonzero;stroke:none;stroke-width:0.25657138"
       d="m 157.27207,128.20127 c -2.02948,4.69012 -4.10771,10.1397 -3.87936,17.42633 0.0334,1.10325 0.14369,2.21678 0.24631,3.32517 0.0975,1.0545 0.11032,2.20137 0.36947,3.14043 0.33867,1.23154 1.50607,2.80689 2.83254,2.89387 1.82935,0.12084 2.88387,-1.74956 3.01728,-3.57148 0.1565,-2.14468 -0.24631,-4.33837 -0.24631,-6.46534 0,-6.48099 1.8935,-11.70761 4.00252,-16.01006 2.51696,0.17191 4.9159,0.46183 7.45083,0.61577 -1.85758,4.77711 -4.10257,9.94728 -4.00252,16.50268 0.0975,6.42968 2.42717,11.52775 4.24883,16.19479 -2.30401,0.32302 -4.84407,0.41308 -7.2661,0.61577 -0.47722,-0.50571 -0.66709,-1.30339 -0.98523,-1.97073 -0.56446,0.31841 -0.85696,0.94188 -1.41628,1.35496 -1.04681,0.77484 -2.73249,1.37778 -4.55671,1.23153 -1.57535,-0.12572 -3.23023,-1.22922 -4.3104,-2.09362 -2.39638,-1.91146 -4.15132,-4.34144 -5.48037,-7.2661 -0.67478,-1.48554 -0.91083,-3.35595 -1.10838,-5.23405 -0.41821,-3.96147 -0.3823,-8.21286 0.36946,-11.8844 0.74405,-3.63587 2.02948,-7.01721 3.26359,-9.72917 2.50413,0.28735 4.93387,0.64912 7.45083,0.92365"
       inkscape:connector-curvature="0" />
    <path
       id="path88"
       style="fill:#1a171b;fill-opacity:1;fill-rule:nonzero;stroke:none;stroke-width:0.25657138"
       d="m 140.70792,128.63223 c -1.32673,6.80453 -0.0411,13.74222 1.60075,19.21207 1.71133,5.70358 4.041,10.56305 6.40402,15.45586 -2.7915,-0.0179 -5.4057,0.13598 -8.18976,0.12341 -1.44449,-2.35045 -2.72735,-4.86742 -4.06409,-7.32794 -2.79381,-0.0154 -5.47754,-0.14624 -8.1895,-0.24631 0.21526,2.5144 0.85439,5.13913 1.3547,7.57425 -2.47361,0.0106 -4.91591,-0.0106 -7.26635,-0.12341 -0.71045,-4.295 -1.35471,-8.99796 -1.35471,-13.79328 0,-14.75029 7.0842,-23.41727 13.36224,-31.89696 2.8482,-0.88773 4.85973,-2.61189 6.65033,-4.5567 -2.17803,1.44192 -6.59645,3.06859 -9.66735,1.35469 1.56226,-2.45795 3.30977,-4.7363 5.17248,-6.89664 1.03885,0.64913 2.41691,0.97498 4.24856,0.86209 3.15865,-0.18987 5.89088,-1.79857 8.31317,-3.38675 2.50157,-1.63948 4.94131,-3.19688 7.08112,-4.5567 -5.87267,8.07943 -13.13107,16.27175 -15.45561,28.20232 m -7.32794,18.90443 c -1.00549,-4.10514 -1.46988,-8.7519 -1.84731,-13.48564 -1.39805,4.06153 -2.61163,8.30778 -3.26333,13.11592 1.64951,0.17961 3.36083,0.29533 5.11064,0.36972"
       inkscape:connector-curvature="0" />
    <path
       id="path124"
       style="fill:#1a171b;fill-opacity:1;fill-rule:nonzero;stroke:none;stroke-width:0.25657138"
       d="m 112.0744,133.86639 c -0.42847,3.77673 -0.33611,8.14075 0,11.94597 -2.53236,-0.2181 -5.04675,-0.45413 -7.5124,-0.73893 -0.3669,-3.76903 -0.49262,-8.51843 0,-12.25386 2.50157,0.35151 5.02109,0.68505 7.5124,1.04682"
       inkscape:connector-curvature="0" />
    <path
       id="path128"
       style="fill:#1a171b;fill-opacity:1;fill-rule:nonzero;stroke:none;stroke-width:0.25657138"
       d="m 87.382053,145.13498 c 1.033983,6.59902 3.027541,11.88696 4.987746,16.87214 -2.257827,-0.12316 -4.497696,-0.26453 -6.711906,-0.43104 -3.476544,-10.36806 -7.412348,-23.17097 -5.049327,-37.06944 1.513772,-8.90303 5.393132,-16.58221 9.298148,-23.39931 1.385485,-2.416908 2.714527,-4.79789 4.187246,-6.958218 2.29888,0.577286 4.582365,1.1674 6.83506,1.785733 0.0642,0.330978 -0.3515,0.741494 -0.61577,1.108394 -2.886427,4.020471 -5.62148,8.495071 -8.37449,12.746461 -1.008324,1.55739 -2.185988,3.02754 -2.894123,4.74144 3.93837,-1.37779 7.266099,-3.53811 10.899152,-5.48036 2.593931,-1.38549 5.252011,-2.889 8.066601,-4.24882 0.8826,-0.42592 2.11415,-1.07247 2.95545,-1.10839 1.01884,-0.0436 2.1221,0.45156 3.01753,0.8005 1.8858,0.73636 3.25589,1.5112 4.92617,2.64782 0.53342,0.36433 2.0087,1.24693 1.9089,1.84731 -0.0744,0.44644 -1.88067,0.96728 -2.46309,1.16997 -4.55927,1.59074 -9.03389,2.87104 -13.7317,4.24882 -1.85501,0.54394 -3.83061,0.96471 -5.603519,1.60101 -0.818461,0.29505 -1.608703,0.7774 -2.463086,1.10838 -2.534924,0.98524 -5.400826,1.70877 -8.066603,2.64782 1.688239,0.10776 3.733112,0 5.911404,0 1.647188,0 4.505392,-0.16164 5.295634,0.86208 0.292492,0.37972 0.39512,1.31108 0.55419,2.03205 0.46696,2.12697 0.61578,4.35144 0.80051,6.77348 0.703,9.234 2.51953,18.33716 2.70939,27.77129 -2.31684,0.37716 -5.346948,0.79768 -7.820297,0.43104 -1.02885,-7.36104 -1.47785,-15.61751 -1.47785,-24.20007 0,-2.79381 0.228347,-6.20108 -1.354696,-7.20428 -1.067339,-0.67478 -3.117344,-0.44386 -4.002516,0.24632 -1.893497,1.48042 -2.370718,5.19044 -2.52466,8.49739 -0.169339,3.641 0.338672,7.20734 0.800502,10.16048"
       inkscape:connector-curvature="0" />
    <path
       id="path144"
       style="fill:#1a171b;fill-opacity:1;fill-rule:nonzero;stroke:none;stroke-width:0.25657138"
       d="m 37.935562,157.45041 c -3.851137,-10.96074 -8.251336,-23.92785 -6.280867,-39.10148 1.2572,-9.68044 5.039063,-18.393603 8.805528,-25.985555 0.638863,-1.287988 1.316214,-2.558016 1.970469,-3.817782 0.705571,-1.354698 1.457327,-2.745315 2.216777,-3.940937 2.457955,0.374594 4.969788,0.695309 7.512412,0.985234 -4.649074,7.748456 -8.790136,16.00749 -11.268617,25.92397 1.662583,-1.12891 4.423291,-3.62792 7.450834,-2.15519 1.67028,0.81332 3.022411,4.02816 3.509897,6.09614 0.623469,2.64524 0.738924,5.71127 0.738924,8.80552 0,6.30396 -0.04362,12.5643 0.923658,18.10368 0.923658,5.28537 2.514399,10.26285 4.433555,14.71693 1.475285,3.42523 3.027541,6.26804 5.665095,8.68212 0.944183,0.86491 4.135932,2.79689 3.509896,-0.12289 0.123156,-0.12829 0.338675,0.254 0.492617,0.43103 1.834485,2.12442 3.861401,4.35402 5.911406,6.40402 0.661953,0.66196 1.747252,1.56766 2.1552,2.33993 0.469524,0.88775 0.859513,2.96084 0.18473,3.81779 -1.449627,1.84219 -4.787621,0.42822 -6.465598,-0.49262 -3.676669,-2.01664 -6.711909,-4.37967 -9.544456,-7.2661 -3.769035,-3.83831 -6.478428,-8.27956 -8.928685,-13.48539 -3.599696,-7.64095 -5.911404,-16.55681 -5.911404,-27.70971 0,-1.28799 0.138547,-3.70746 0,-5.48036 -0.118023,-1.52404 -0.738925,-3.60739 -1.908892,-3.69464 -1.313647,-0.0949 -2.260394,1.69081 -2.77097,2.64782 -0.620904,1.16227 -1.500945,2.80946 -1.662584,4.06409 -0.18473,1.4291 -0.01024,3.13787 0.06158,4.67961 0.484918,10.24515 3.463712,19.0943 6.588753,26.2937 -2.473349,-0.23605 -4.96209,-0.4567 -7.389257,-0.73893"
       inkscape:connector-curvature="0" />
    <path
       id="path152"
       style="fill:#1a171b;fill-opacity:1;fill-rule:nonzero;stroke:none;stroke-width:0.25657138"
       d="m 64.968002,125.30709 c -1.652321,3.0532 -2.232172,7.3636 -1.908891,12.00754 0.192427,2.76096 0.859513,5.12117 1.785735,7.57399 0.382292,1.01372 0.77228,2.08079 1.477853,3.20201 0.628599,1.0032 1.652319,2.20908 2.709393,2.03205 1.583045,-0.26171 1.601006,-4.52336 1.601006,-6.34245 0,-5.59069 -0.21039,-10.30109 -0.738925,-15.27113 -0.194995,-1.81909 -0.508011,-5.80621 -2.463086,-5.60352 -1.134046,0.11803 -1.95251,1.45989 -2.463085,2.40151 m -9.606034,7.0198 c 0,-3.03524 0.482353,-5.73694 1.169965,-8.18976 1.375224,-4.90822 3.80239,-8.95948 7.512411,-11.14546 0.728664,-0.42847 1.757513,-0.85952 2.832549,-0.98524 0.779978,-0.0898 2.268091,-0.005 3.140433,0.43103 3.053198,1.53174 4.551576,5.58813 5.418789,9.48289 0.779976,3.49963 1.285422,8.73882 1.724158,13.17751 0.441303,4.47204 0.890303,8.68237 1.231544,13.67012 0.387423,5.66766 0.862081,14.46036 -5.41879,12.68489 -2.275788,-0.64143 -4.007643,-2.03205 -5.788248,-3.57148 -4.939001,-4.26678 -8.531,-10.44758 -10.591269,-17.42632 -0.756885,-2.56571 -1.231542,-5.09551 -1.231542,-8.12818"
       inkscape:connector-curvature="0" />
    <path
       id="path156"
       style="fill:#1a171b;fill-opacity:1;fill-rule:nonzero;stroke:none;stroke-width:0.25657138"
       d="m 29.19158,138.48467 c 1.118652,5.61379 2.711959,10.75291 4.556709,15.64059 -0.459264,1.991 -0.949314,3.58662 -2.401508,4.49488 -1.906326,1.19332 -4.954394,0.13881 -6.588754,-0.67709 -1.870405,-0.93135 -3.53812,-2.27348 -4.987748,-3.44858 -3.17892,-2.57828 -5.86009,-5.49293 -8.128182,-8.68211 -4.6978218,-6.59902 -7.8998327,-14.70925 -8.3129127,-25.30821 v -0.49262 c 0.1796,-8.95177 2.8941252,-15.37119 6.0345593,-21.367258 0.9390514,0.333533 2.0397424,0.400246 3.0172794,0.123145 3.65101,-1.033975 5.726673,-5.254578 7.697142,-7.881868 -2.109017,2.401508 -5.875485,4.99031 -10.7759986,3.817782 1.4111426,-3.227668 3.0557646,-6.221856 4.7414396,-9.174993 4.718348,0.48492 7.348205,-1.557389 10.09865,-3.44832 2.60933,-1.790868 5.872919,-3.707457 9.790763,-4.064091 h 0.184733 c 3.604827,0.169337 4.992879,2.219343 5.480365,5.541942 0.174467,1.193058 0.3592,2.742749 0.123153,3.817783 -0.189861,0.869776 -0.995497,1.862708 -1.477849,2.770972 -1.511205,2.840244 -2.909522,5.867791 -4.187246,8.620793 -0.41308,-2.719656 -0.669652,-5.813902 -2.647816,-6.896634 -0.474659,-0.259138 -1.559955,-0.631166 -2.032046,-0.677349 -2.624727,-0.248873 -5.003143,2.185988 -6.280869,3.571474 -3.302073,3.579167 -5.311028,7.830562 -7.204524,12.561732 -0.918526,2.29888 -1.855011,4.76966 -2.401509,7.51241 -1.128914,5.66254 -0.451565,12.43089 0.985235,17.54949 1.067336,3.79982 2.568279,7.3736 4.864593,9.97549 0.767149,0.86978 1.826788,1.95226 2.709394,2.27836 1.092994,0.40538 2.509268,0.21552 3.325166,-0.18474 2.114148,-1.03655 2.922348,-3.651 3.817781,-5.97298"
       inkscape:connector-curvature="0" />
  </g>
</svg>
